<svg xmlns="http://www.w3.org/2000/svg" width="700" height="320"
     viewBox="0 0 700 320" font-family="'Courier New', monospace">

  <!-- Background -->
  <rect width="700" height="320" fill="#0f172a" rx="12"/>

  <!-- Title -->
  <text x="350" y="28" text-anchor="middle" fill="#cbd5e1" font-size="13" font-weight="bold">
    Weather Station — Heltec WiFi LoRa 32 V3
  </text>

  <!-- ═══ Heltec V3 Board ═══ -->
  <rect x="20" y="48" width="150" height="250" rx="10" fill="#052e16" stroke="#4ade80" stroke-width="2"/>
  <text x="95" y="72" text-anchor="middle" fill="#4ade80" font-size="11" font-weight="bold">Heltec V3</text>
  <text x="95" y="87" text-anchor="middle" fill="#86efac" font-size="9">ESP32-S3</text>

  <!-- OLED decoration -->
  <rect x="36" y="100" width="118" height="50" rx="4" fill="#0a1f15" stroke="#4ade80" stroke-width="1"/>
  <text x="95" y="129" text-anchor="middle" fill="#4ade80" font-size="8">OLED 128×64</text>

  <!-- PRG button decoration -->
  <rect x="55" y="165" width="80" height="22" rx="4" fill="#1e3a1e" stroke="#4ade80" stroke-width="1"/>
  <text x="95" y="180" text-anchor="middle" fill="#86efac" font-size="8">PRG Button (GPIO 0)</text>

  <!-- Pins on right edge -->
  <!-- GPIO 6 -->
  <rect x="162" y="218" width="17" height="14" rx="3" fill="#1c1917" stroke="#f97316" stroke-width="1.5"/>
  <circle cx="170" cy="225" r="4" fill="#f97316"/>
  <text x="155" y="229" text-anchor="end" fill="#f97316" font-size="11">GPIO 6</text>

  <!-- GND -->
  <rect x="162" y="268" width="17" height="14" rx="3" fill="#1c1917" stroke="#94a3b8" stroke-width="1.5"/>
  <circle cx="170" cy="275" r="4" fill="#94a3b8"/>
  <text x="155" y="279" text-anchor="end" fill="#94a3b8" font-size="11">GND</text>

  <!-- WiFi label -->
  <text x="95" y="215" text-anchor="middle" fill="#60a5fa" font-size="8">WiFi built-in</text>
  <text x="95" y="226" text-anchor="middle" fill="#60a5fa" font-size="8">NTP + wttr.in</text>


  <!-- ═══ Wires + Components ═══ -->

  <!-- GPIO 6 → resistor wire -->
  <line x1="170" y1="225" x2="310" y2="225" stroke="#f97316" stroke-width="2.5"/>

  <!-- 220Ω resistor -->
  <rect x="310" y="213" width="70" height="24" rx="5" fill="#1c1917" stroke="#fbbf24" stroke-width="2"/>
  <polyline points="318,225 326,215 334,235 342,215 350,235 358,215 366,225 372,225"
            fill="none" stroke="#fbbf24" stroke-width="1.2"/>
  <text x="345" y="210" text-anchor="middle" fill="#fbbf24" font-size="10" font-weight="bold">220 Ω</text>

  <!-- Resistor → LED wire -->
  <line x1="380" y1="225" x2="430" y2="225" stroke="#f97316" stroke-width="2.5"/>

  <!-- LED symbol -->
  <!-- LED body (triangle + line) -->
  <polygon points="430,210 430,240 460,225" fill="#fbbf2433" stroke="#fbbf24" stroke-width="2"/>
  <line x1="460" y1="210" x2="460" y2="240" stroke="#fbbf24" stroke-width="2"/>
  <!-- LED light rays -->
  <line x1="466" y1="212" x2="478" y2="200" stroke="#fbbf24" stroke-width="1.5"/>
  <line x1="466" y1="220" x2="480" y2="210" stroke="#fbbf24" stroke-width="1.5"/>
  <!-- Anode label -->
  <text x="430" y="205" text-anchor="middle" fill="#94a3b8" font-size="9">+</text>
  <!-- Cathode label -->
  <text x="462" y="205" text-anchor="middle" fill="#94a3b8" font-size="9">−</text>

  <!-- LED cathode → down → GND wire -->
  <line x1="460" y1="225" x2="510" y2="225" stroke="#94a3b8" stroke-width="2.5"/>
  <line x1="510" y1="225" x2="510" y2="275" stroke="#94a3b8" stroke-width="2.5"/>

  <!-- GND → GND wire (from Heltec) -->
  <line x1="170" y1="275" x2="510" y2="275" stroke="#94a3b8" stroke-width="2.5"/>

  <!-- GND symbol at right -->
  <line x1="490" y1="275" x2="530" y2="275" stroke="#94a3b8" stroke-width="2"/>
  <line x1="496" y1="282" x2="524" y2="282" stroke="#94a3b8" stroke-width="2"/>
  <line x1="503" y1="289" x2="517" y2="289" stroke="#94a3b8" stroke-width="1.5"/>

  <!-- Labels -->
  <text x="200" y="218" fill="#f97316" font-size="9" text-anchor="middle">signal</text>
  <text x="405" y="218" fill="#86efac" font-size="9" text-anchor="middle">anode</text>
  <text x="490" y="218" fill="#86efac" font-size="9" text-anchor="middle">cathode</text>

  <!-- LED glow circle -->
  <circle cx="445" cy="225" r="22" fill="none" stroke="#fbbf2422" stroke-width="8"/>


  <!-- ═══ Internal connections note ═══ -->
  <rect x="560" y="80" width="125" height="150" rx="8" fill="#0c1a35" stroke="#38bdf8" stroke-width="1.5"/>
  <text x="622" y="100" text-anchor="middle" fill="#38bdf8" font-size="10" font-weight="bold">Internal</text>

  <text x="572" y="120" fill="#94a3b8" font-size="9">OLED SDA  GPIO 17</text>
  <text x="572" y="135" fill="#94a3b8" font-size="9">OLED SCL  GPIO 18</text>
  <text x="572" y="150" fill="#94a3b8" font-size="9">OLED RST  GPIO 21</text>
  <text x="572" y="165" fill="#94a3b8" font-size="9">PRG btn   GPIO  0</text>
  <text x="572" y="180" fill="#94a3b8" font-size="9">LED onbd  GPIO 35</text>
  <text x="572" y="200" fill="#60a5fa" font-size="9">WiFi  →  wttr.in</text>
  <text x="572" y="215" fill="#60a5fa" font-size="9">NTP   →  time</text>

  <!-- Footnote -->
  <text x="350" y="308" text-anchor="middle" fill="#475569" font-size="9">
    LED lights when temperature &gt; 20°C
  </text>

</svg>
