<svg xmlns="http://www.w3.org/2000/svg" width="740" height="360"
     viewBox="0 0 740 360" font-family="'Courier New', monospace">

  <!-- Background -->
  <rect width="740" height="360" fill="#0f172a" rx="12"/>

  <!-- Title -->
  <text x="370" y="26" text-anchor="middle" fill="#cbd5e1" font-size="13" font-weight="bold">
    Weather Station — Heltec WiFi LoRa 32 V3
  </text>

  <!-- ═══ Heltec V3 Board ═══ -->
  <rect x="20" y="44" width="148" height="272" rx="10" fill="#052e16" stroke="#4ade80" stroke-width="2"/>
  <text x="94" y="66"  text-anchor="middle" fill="#4ade80" font-size="11" font-weight="bold">Heltec V3</text>
  <text x="94" y="80"  text-anchor="middle" fill="#86efac" font-size="9">ESP32-S3</text>

  <!-- OLED inside board -->
  <rect x="34" y="90" width="120" height="44" rx="4" fill="#071527" stroke="#4ade80" stroke-width="1"/>
  <text x="94" y="116" text-anchor="middle" fill="#4ade80" font-size="8">OLED  128×64</text>

  <!-- PRG button inside board -->
  <rect x="52" y="148" width="84" height="20" rx="4" fill="#0f2a1e" stroke="#4ade80" stroke-width="1"/>
  <text x="94" y="162" text-anchor="middle" fill="#86efac" font-size="8">PRG  GPIO 0</text>

  <!-- WiFi inside board -->
  <text x="94" y="196" text-anchor="middle" fill="#60a5fa" font-size="8">WiFi → wttr.in</text>
  <text x="94" y="208" text-anchor="middle" fill="#60a5fa" font-size="8">NTP  → time</text>

  <!-- GPIO 6 pin -->
  <circle cx="168" cy="236" r="5" fill="#f97316"/>
  <rect x="155" y="229" width="18" height="14" rx="3" fill="#1c1917" stroke="#f97316" stroke-width="1.5"/>
  <text x="148" y="241" text-anchor="end" fill="#f97316" font-size="10">GPIO 6</text>

  <!-- GND pin -->
  <circle cx="168" cy="286" r="5" fill="#94a3b8"/>
  <rect x="155" y="279" width="18" height="14" rx="3" fill="#1c1917" stroke="#94a3b8" stroke-width="1.5"/>
  <text x="148" y="291" text-anchor="end" fill="#94a3b8" font-size="10">GND</text>


  <!-- ═══ Signal wire: GPIO 6 → resistor ═══ -->
  <line x1="168" y1="236" x2="248" y2="236" stroke="#f97316" stroke-width="2.5"/>

  <!-- 220Ω resistor body -->
  <rect x="248" y="222" width="80" height="28" rx="5" fill="#1c1917" stroke="#fbbf24" stroke-width="2"/>
  <!-- zigzag inside -->
  <polyline points="256,236 263,224 271,248 279,224 287,248 295,224 303,236 320,236"
            fill="none" stroke="#fbbf24" stroke-width="1.5"/>
  <!-- label above -->
  <text x="288" y="218" text-anchor="middle" fill="#fbbf24" font-size="10" font-weight="bold">220 Ω</text>

  <!-- wire: resistor → LED anode -->
  <line x1="328" y1="236" x2="388" y2="236" stroke="#f97316" stroke-width="2.5"/>
  <text x="358" y="228" text-anchor="middle" fill="#86efac" font-size="8">anode  +</text>

  <!-- ═══ LED symbol ═══ -->
  <!-- Triangle (anode left, tip right) -->
  <polygon points="388,218 388,254 420,236" fill="#3b82f622" stroke="#3b82f6" stroke-width="2"/>
  <!-- Cathode bar -->
  <line x1="420" y1="218" x2="420" y2="254" stroke="#3b82f6" stroke-width="2.5"/>
  <!-- LED label -->
  <text x="404" y="272" text-anchor="middle" fill="#3b82f6" font-size="9" font-weight="bold">Blue LED</text>
  <text x="430" y="228" text-anchor="start" fill="#86efac" font-size="8">−  cathode</text>

  <!-- wire: LED cathode → right → down to GND rail -->
  <line x1="420" y1="236" x2="470" y2="236" stroke="#94a3b8" stroke-width="2.5"/>
  <line x1="470" y1="236" x2="470" y2="286" stroke="#94a3b8" stroke-width="2.5"/>

  <!-- GND rail wire -->
  <line x1="168" y1="286" x2="470" y2="286" stroke="#94a3b8" stroke-width="2.5"/>

  <!-- GND symbol -->
  <line x1="450" y1="286" x2="490" y2="286" stroke="#94a3b8" stroke-width="2.5"/>
  <line x1="456" y1="294" x2="484" y2="294" stroke="#94a3b8" stroke-width="2"/>
  <line x1="463" y1="302" x2="477" y2="302" stroke="#94a3b8" stroke-width="1.5"/>
  <text x="470" y="318" text-anchor="middle" fill="#64748b" font-size="9">GND</text>


  <!-- ═══ Internal connections box ═══ -->
  <rect x="530" y="60" width="190" height="210" rx="8" fill="#0c1a35" stroke="#38bdf8" stroke-width="1.5"/>
  <text x="625" y="82" text-anchor="middle" fill="#38bdf8" font-size="10" font-weight="bold">Internal connections</text>

  <!-- divider -->
  <line x1="542" y1="90" x2="708" y2="90" stroke="#1e3a5f" stroke-width="1"/>

  <text x="542" y="108" fill="#94a3b8" font-size="9">OLED SDA  →  GPIO 17</text>
  <text x="542" y="124" fill="#94a3b8" font-size="9">OLED SCL  →  GPIO 18</text>
  <text x="542" y="140" fill="#94a3b8" font-size="9">OLED RST  →  GPIO 21</text>
  <text x="542" y="156" fill="#94a3b8" font-size="9">PRG btn   →  GPIO  0</text>
  <text x="542" y="172" fill="#94a3b8" font-size="9">Onboard LED → GPIO 35</text>
  <line x1="542" y1="182" x2="708" y2="182" stroke="#1e3a5f" stroke-width="1"/>
  <text x="542" y="198" fill="#60a5fa" font-size="9">WiFi  →  https://wttr.in</text>
  <text x="542" y="214" fill="#60a5fa" font-size="9">NTP   →  pool.ntp.org</text>
  <text x="542" y="230" fill="#4ade80" font-size="9">Button toggles city</text>
  <text x="542" y="246" fill="#4ade80" font-size="9">Weather refreshes 5 min</text>

  <!-- Footnote -->
  <text x="370" y="345" text-anchor="middle" fill="#475569" font-size="9">
    Blue LED on GPIO 6 lights when temperature &gt; 10°C
  </text>

</svg>
